<svg xmlns="http://www.w3.org/2000/svg" xmlns:xlink="http://www.w3.org/1999/xlink">
<line x1="20" y1="28" x2="72" y2="83" stroke="blue" stroke-width="2"/>
<line x1="29" y1="74" x2="92" y2="15" stroke="blue" stroke-width="2"/>
<line x1="76" y1="138" x2="101" y2="80" stroke="blue" stroke-width="2"/>
<line x1="308" y1="70" x2="379" y2="44" stroke="blue" stroke-width="2"/>
<polygon points="227,44 226,44 226,45 226,45 226,46 226,47 225,47 225,48 224,48 223,49 223,50 222,50 221,51 220,51 219,52 218,52 217,53 216,53 215,54 214,54 212,55 211,55 209,55 208,56 207,56 205,56 203,57 202,57 200,57 198,58 197,58 195,58 193,58 192,58 190,58 188,58 186,58 184,58 183,58 181,58 179,58 177,58 175,58 174,58 172,58 170,58 169,58 167,57 165,57 164,57 162,56 160,56 159,56 158,55 156,55 155,55 153,54 152,54 151,53 150,53 149,52 148,52 147,51 146,51 145,50 144,50 144,49 143,48 142,48 142,47 141,47 141,46 141,45 141,45 141,44 141,44 141,43 141,42 141,42 141,41 141,40 142,40 142,39 143,39 144,38 144,37 145,37 146,36 147,36 148,35 149,35 150,34 151,34 152,33 153,33 155,32 156,32 158,32 159,31 160,31 162,31 164,30 165,30 167,30 169,29 170,29 172,29 174,29 175,29 177,29 179,29 181,29 183,29 184,29 186,29 188,29 190,29 192,29 193,29 195,29 197,29 198,29 200,30 202,30 203,30 205,31 207,31 208,31 209,32 211,32 212,32 214,33 215,33 216,34 217,34 218,35 219,35 220,36 221,36 222,37 223,37 223,38 224,39 225,39 225,40 226,40 226,41 226,42 226,42 226,43 " fill="blue" stroke="red" stroke-width="2"/>
<polygon points="266,69 265,70 265,71 265,72 265,73 265,74 264,75 264,76 263,77 263,78 262,79 261,80 261,81 260,82 259,83 258,84 257,85 256,85 255,86 253,87 252,88 251,89 250,89 248,90 247,90 246,91 244,92 243,92 241,92 239,93 238,93 236,94 235,94 233,94 231,94 230,94 228,94 226,94 225,94 223,94 221,94 220,94 218,94 216,94 215,94 213,93 212,93 210,92 208,92 207,92 206,91 204,90 203,90 201,89 200,89 199,88 198,87 196,86 195,85 194,85 193,84 192,83 191,82 190,81 190,80 189,79 188,78 188,77 187,76 187,75 186,74 186,73 186,72 186,71 186,70 186,69 186,67 186,66 186,65 186,64 186,63 187,62 187,61 188,60 188,59 189,58 190,57 190,56 191,55 192,54 193,53 194,52 195,52 196,51 198,50 199,49 200,48 201,48 203,47 204,47 205,46 207,45 208,45 210,45 212,44 213,44 215,43 216,43 218,43 220,43 221,43 223,43 225,43 226,43 228,43 230,43 231,43 233,43 235,43 236,43 238,44 239,44 241,45 243,45 244,45 245,46 247,47 248,47 250,48 251,48 252,49 253,50 255,51 256,52 257,52 258,53 259,54 260,55 261,56 261,57 262,58 263,59 263,60 264,61 264,62 265,63 265,64 265,65 265,66 265,67 " fill="blue" stroke="red" stroke-width="2"/>
<polygon points="251,134 250,135 250,136 250,137 250,138 250,139 250,140 250,142 250,143 250,144 250,145 249,146 249,147 249,148 249,149 249,150 248,151 248,152 248,153 247,154 247,154 247,155 247,156 246,156 246,157 246,158 245,158 245,159 244,159 244,160 244,160 243,160 243,161 242,161 242,161 242,161 241,161 241,161 240,161 240,161 239,161 239,161 239,161 238,161 238,160 237,160 237,160 237,159 236,159 236,158 236,158 235,157 235,156 234,156 234,155 234,154 234,154 233,153 233,152 233,151 232,150 232,149 232,148 232,147 232,146 231,145 231,144 231,143 231,142 231,140 231,139 231,138 231,137 231,136 231,135 231,134 231,132 231,131 231,130 231,129 231,128 231,127 231,125 231,124 231,123 231,122 232,121 232,120 232,119 232,118 232,117 233,116 233,115 233,114 234,113 234,113 234,112 234,111 235,111 235,110 236,109 236,109 236,108 237,108 237,107 237,107 238,107 238,106 239,106 239,106 239,106 240,106 240,106 241,106 241,106 242,106 242,106 242,106 243,106 243,107 244,107 244,107 244,108 245,108 245,109 246,109 246,110 246,111 247,111 247,112 247,113 247,113 248,114 248,115 248,116 249,117 249,118 249,119 249,120 249,121 250,122 250,123 250,124 250,125 250,127 250,128 250,129 250,130 250,131 250,132 " fill="blue" stroke="red" stroke-width="2"/>
<polygon points="410,94 409,95 409,96 409,97 409,98 409,99 408,100 408,101 407,102 406,103 406,104 405,105 404,106 403,106 402,107 401,108 400,109 399,110 398,111 396,111 395,112 394,113 392,113 391,114 389,115 388,115 386,116 384,116 383,117 381,117 379,117 377,118 376,118 374,118 372,118 370,118 368,118 366,118 365,118 363,118 361,118 359,118 357,118 355,118 354,118 352,117 350,117 348,117 347,116 345,116 344,115 342,115 340,114 339,113 337,113 336,112 335,111 333,111 332,110 331,109 330,108 329,107 328,106 327,106 326,105 325,104 325,103 324,102 323,101 323,100 322,99 322,98 322,97 322,96 322,95 322,94 322,92 322,91 322,90 322,89 322,88 323,87 323,86 324,85 325,84 325,83 326,82 327,81 328,81 329,80 330,79 331,78 332,77 333,76 335,76 336,75 337,74 339,74 340,73 342,72 344,72 345,71 347,71 348,70 350,70 352,70 354,69 355,69 357,69 359,69 361,69 363,69 365,69 366,69 368,69 370,69 372,69 374,69 376,69 377,69 379,70 381,70 383,70 384,71 386,71 388,72 389,72 391,73 392,74 394,74 395,75 396,76 398,76 399,77 400,78 401,79 402,80 403,81 404,81 405,82 406,83 406,84 407,85 408,86 408,87 409,88 409,89 409,90 409,91 409,92 " fill="blue" stroke="red" stroke-width="2"/>
</svg>
