<svg xmlns="http://www.w3.org/2000/svg" xmlns:xlink="http://www.w3.org/1999/xlink">
<line x1="319" y1="191" x2="390" y2="165" stroke="blue" stroke-width="2"/>
<polygon points="421,215 420,216 420,217 420,218 420,219 420,220 419,221 419,222 418,223 417,224 417,225 416,226 415,227 414,227 413,228 412,229 411,230 410,231 409,232 407,232 406,233 405,234 403,234 402,235 400,236 399,236 397,237 395,237 394,238 392,238 390,238 388,239 387,239 385,239 383,239 381,239 379,239 377,239 376,239 374,239 372,239 370,239 368,239 366,239 365,239 363,238 361,238 359,238 358,237 356,237 355,236 353,236 351,235 350,234 348,234 347,233 346,232 344,232 343,231 342,230 341,229 340,228 339,227 338,227 337,226 336,225 336,224 335,223 334,222 334,221 333,220 333,219 333,218 333,217 333,216 333,215 333,213 333,212 333,211 333,210 333,209 334,208 334,207 335,206 336,205 336,204 337,203 338,202 339,202 340,201 341,200 342,199 343,198 344,197 346,197 347,196 348,195 350,195 351,194 353,193 355,193 356,192 358,192 359,191 361,191 363,191 365,190 366,190 368,190 370,190 372,190 374,190 376,190 377,190 379,190 381,190 383,190 385,190 387,190 388,190 390,191 392,191 394,191 395,192 397,192 399,193 400,193 402,194 403,195 405,195 406,196 407,197 409,197 410,198 411,199 412,200 413,201 414,202 415,202 416,203 417,204 417,205 418,206 419,207 419,208 420,209 420,210 420,211 420,212 420,213 " fill="blue" stroke="red" stroke-width="2"/>
<polygon points="267,280 266,278 266,277 266,276 266,275 266,275 266,274 266,273 265,272 265,271 265,270 264,269 264,268 263,267 263,266 262,265 262,265 261,264 261,263 260,262 260,262 259,261 258,260 257,260 257,259 256,259 255,258 254,258 254,257 253,257 252,257 251,256 250,256 249,256 249,256 248,256 247,256 246,256 245,256 244,256 243,256 242,256 242,256 241,256 240,256 239,257 238,257 237,257 237,258 236,258 235,259 234,259 234,260 233,260 232,261 231,262 231,262 230,263 230,264 229,265 229,265 228,266 228,267 227,268 227,269 226,270 226,271 226,272 225,273 225,274 225,275 225,275 225,276 225,277 225,278 225,280 225,281 225,282 225,283 225,284 225,284 225,285 225,286 226,287 226,288 226,289 227,290 227,291 228,292 228,293 229,294 229,294 230,295 230,296 231,297 231,297 232,298 233,299 234,299 234,300 235,300 236,301 237,301 237,302 238,302 239,302 240,303 241,303 242,303 242,303 243,303 244,303 245,303 246,303 247,303 248,303 249,303 249,303 250,303 251,303 252,302 253,302 254,302 254,301 255,301 256,300 257,300 257,299 258,299 259,298 260,297 260,297 261,296 261,295 262,294 262,294 263,293 263,292 264,291 264,290 265,289 265,288 265,287 266,286 266,285 266,284 266,284 266,283 266,282 266,281 " fill="blue" stroke="red" stroke-width="2"/>
<line x1="81" y1="232" x2="106" y2="174" stroke="blue" stroke-width="2"/>
<polygon points="271,163 270,164 270,165 270,166 270,167 270,168 269,169 269,170 268,171 268,172 267,173 266,174 266,175 265,176 264,177 263,178 262,179 261,179 260,180 258,181 257,182 256,183 255,183 253,184 252,184 251,185 249,186 248,186 246,186 244,187 243,187 241,188 240,188 238,188 236,188 235,188 233,188 231,188 230,188 228,188 226,188 225,188 223,188 221,188 220,188 218,187 217,187 215,186 213,186 212,186 211,185 209,184 208,184 206,183 205,183 204,182 203,181 201,180 200,179 199,179 198,178 197,177 196,176 195,175 195,174 194,173 193,172 193,171 192,170 192,169 191,168 191,167 191,166 191,165 191,164 191,163 191,161 191,160 191,159 191,158 191,157 192,156 192,155 193,154 193,153 194,152 195,151 195,150 196,149 197,148 198,147 199,146 200,146 201,145 203,144 204,143 205,142 206,142 208,141 209,141 210,140 212,139 213,139 215,139 217,138 218,138 220,137 221,137 223,137 225,137 226,137 228,137 230,137 231,137 233,137 235,137 236,137 238,137 240,137 241,137 243,138 244,138 246,139 248,139 249,139 250,140 252,141 253,141 255,142 256,142 257,143 258,144 260,145 261,146 262,146 263,147 264,148 265,149 266,150 266,151 267,152 268,153 268,154 269,155 269,156 270,157 270,158 270,159 270,160 270,161 " fill="blue" stroke="red" stroke-width="2"/>
<polygon points="232,138 231,138 231,139 231,139 231,140 231,141 230,141 230,142 229,142 228,143 228,144 227,144 226,145 225,145 224,146 223,146 222,147 221,147 220,148 219,148 217,149 216,149 214,149 213,150 212,150 210,150 208,151 207,151 205,151 203,152 202,152 200,152 198,152 197,152 195,152 193,152 191,152 189,152 188,152 186,152 184,152 182,152 180,152 179,152 177,152 175,152 174,152 172,151 170,151 169,151 167,150 165,150 164,150 163,149 161,149 160,149 158,148 157,148 156,147 155,147 154,146 153,146 152,145 151,145 150,144 149,144 149,143 148,142 147,142 147,141 146,141 146,140 146,139 146,139 146,138 146,138 146,137 146,136 146,136 146,135 146,134 147,134 147,133 148,133 149,132 149,131 150,131 151,130 152,130 153,129 154,129 155,128 156,128 157,127 158,127 160,126 161,126 163,126 164,125 165,125 167,125 169,124 170,124 172,124 174,123 175,123 177,123 179,123 180,123 182,123 184,123 186,123 188,123 189,123 191,123 193,123 195,123 197,123 198,123 200,123 202,123 203,123 205,124 207,124 208,124 210,125 212,125 213,125 214,126 216,126 217,126 219,127 220,127 221,128 222,128 223,129 224,129 225,130 226,130 227,131 228,131 228,132 229,133 230,133 230,134 231,134 231,135 231,136 231,136 231,137 " fill="blue" stroke="red" stroke-width="2"/>
<line x1="51" y1="247" x2="32" y2="334" stroke="blue" stroke-width="2"/>
<line x1="28" y1="144" x2="91" y2="85" stroke="blue" stroke-width="2"/>
</svg>
